<svg width="200" height="200" viewBox="0 0 200 200" fill="none" xmlns="http://www.w3.org/2000/svg">
<path fill-rule="evenodd" clip-rule="evenodd" d="M165.54 143.333C164.463 142.332 163.646 141.295 163.369 140.333C162.282 136.525 163.715 125.457 165.873 122.001C168.023 118.532 165.641 108.125 164.938 106.403C164.214 104.67 163.972 102.422 161.503 103.103C159.02 103.798 153.443 103.539 148.398 102.501C143.339 101.474 138.935 96.6012 137.928 91.1068C136.799 84.9472 136.799 78.9639 138.239 75.2123C139.849 70.9951 143.814 69.3987 147.442 67.4098C149.115 66.4985 157.203 65.208 156.898 61.3167C155.018 57.7314 137.848 61.809 137.159 56.2381C136.463 50.6572 136.217 47.8568 138.395 43.3668C140.68 38.684 138.052 39.3092 137.422 33.6319C137.335 32.8237 139.126 30.7351 139.267 30.0001C145.192 33.3692 150.756 37.3969 155.749 42.1928C171.388 57.2225 179.999 77.2045 179.999 98.4604C179.999 114.724 174.92 130.213 165.54 143.333M128.698 140.809C125.284 146.23 126.105 150.223 118.316 154.368C113.977 156.679 110.891 157.334 108.596 163.54C106.291 169.733 102.469 169.515 92.9275 174.546C83.373 179.591 79.5777 174.546 78.7995 170.677C78.0245 166.808 80.3792 157.669 80.3792 157.669C80.3792 157.669 81.3131 154.939 74.5438 151.856C57.4252 144.06 72.1958 116.691 72.1958 116.691C68.3276 112.164 58.5049 103.283 44.7908 100.375C31.6794 97.6006 27.9404 89.9061 23.3337 82.2249C26.7051 68.0046 33.789 54.9362 44.2476 44.323C59.207 29.1488 79.0909 19.9999 100.263 19.9999C100.263 19.9999 107.403 19.9999 114.143 21.7699C107.98 28.5543 101.084 35.4126 95.9611 37.3035C86.7378 40.7293 82.4623 46.3415 82.4225 52.3199C82.4027 55.4165 88.8143 61.0287 88.8143 68.1288C88.8143 80.1963 79.9586 80.4751 78.9253 75.3901C76.5938 63.8567 67.6752 66.8358 56.9947 67.9911C46.2976 69.1566 39.8165 81.7513 46.6851 86.7893C53.567 91.8272 53.2126 85.1973 55.8587 83.3064C58.4916 81.4121 60.3528 80.6632 62.3532 83.3064C64.3369 85.9496 68.6389 87.3871 68.2249 92.8113C67.864 98.2321 66.7048 102.874 73.9742 102.874C81.2336 102.874 81.4853 104.492 86.092 106.813C90.6523 109.137 94.9709 108.701 98.7761 109.48C102.598 110.249 107.605 117.732 107.605 117.732C118.438 121.282 122.002 122.733 124.992 125.756C127.973 128.779 132.152 135.385 128.698 140.809M99.9883 0H99.9617H99.935C60.2624 0 26.0849 23.1767 9.91981 56.6667C3.58447 69.79 7.45796e-07 84.4533 7.45796e-07 100C-0.00666803 155.22 44.7108 200 99.9483 200H99.975H100.002C155.219 200 200.007 155.22 200 100.013C200.007 44.2833 154.556 0 99.9883 0" fill="white"/>
</svg>
