<svg width="147" height="200" viewBox="0 0 147 200" fill="none" xmlns="http://www.w3.org/2000/svg">
<path fill-rule="evenodd" clip-rule="evenodd" d="M74.9832 110.001C55.6371 110.001 39.9865 94.3321 39.9865 75.0023C39.9865 55.6825 55.6371 40.0006 74.9832 40.0006C94.3225 40.0006 109.987 55.6825 109.987 75.0023C109.987 94.3321 94.3225 110.001 74.9832 110.001M72.9968 0C32.3143 0 0 34.2943 0 76.5954C0 134.261 61.8258 193.85 61.8258 193.85C70.1438 201.726 75.3107 202.368 84.1544 193.85C84.1544 193.85 146.667 134.261 146.667 76.5954C146.667 34.2943 113.676 0 72.9968 0" fill="#F55A5A"/>
</svg>
